{"title":"Absence.2013.BRRip.x264.AC3-FooKaS [PublicHash]","uid":8712555,"size":1501440859,"categoryP":"video","categoryS":"movies","magnet":"?xt=urn:btih:7bf28708f348a0961d328732447193589747b271&amp;dn=Absence.2013.BRRip.x264.AC3-FooKaS+%5BPublicHash%5D&amp;tr=udp%3A%2F%2Ftracker.openbittorrent.com%3A80&amp;tr=udp%3A%2F%2Fopen.demonii.com%3A1337&amp;tr=udp%3A%2F%2Ftracker.coppersurfer.tk%3A6969&amp;tr=udp%3A%2F%2Fexodus.desync.com%3A6969","seeders":1,"leechers":0,"uploader":"R0thschild","files":3,"time":1374268742,"description":"              ***********************************************\n\n                PublicHash - Largest Bittorrent Community\n      \n                         &lt;a href=&quot; http://publichash.com/&quot; rel=&quot;nofollow&quot; target=&quot;_NEW&quot;&gt; http://publichash.com/&lt;/a&gt;\n\n          Crystal Clean files - Fast Speed! No Virus! No Fake! Enjoy!\n    \n              ***********************************************\nSource 720p blueray Rovers(thx)\n &lt;a href=&quot;\nhttp://www.imdb.com/title/tt2736254/&quot; rel=&quot;nofollow&quot; target=&quot;_NEW&quot;&gt;\nhttp://www.imdb.com/title/tt2736254/&lt;/a&gt;\n\nInfo:\n\nFormat: Matroska\nFormat version: Version 2\nFile size: 1.40 GiB\nDuration: 1h 21mn\nOverall bit rate: 2 466 Kbps\nEncoded date: UTC 2013-07-19 08:41:35\nWriting application: mkvmerge v6.2.0 ( 'Promised Land' ) built on Apr 28 2013 12:22:01\nWriting library: libebml v1.3.0 + libmatroska v1.4.0\n\nVideo:\n\nID: 1\nFormat: AVC\nFormat/Info: Advanced Video Codec\nFormat profile: &lt;a class=&quot;__cf_email__&quot; href=&quot;/cdn-cgi/l/email-protection&quot; data-cfemail=&quot;0c44656b644c403f223c&quot;&gt;[email&amp;#160;protected]&lt;/a&gt;&lt;script cf-hash='f9e31' type=&quot;text/javascript&quot;&gt;\n/* &lt;![CDATA[ */!function(){try{var t=&quot;currentScript&quot;in document?document.currentScript:function(){for(var t=document.getElementsByTagName(&quot;script&quot;),e=t.length;e--;)if(t[e].getAttribute(&quot;cf-hash&quot;))return t[e]}();if(t&amp;&amp;t.previousSibling){var e,r,n,i,c=t.previousSibling,a=c.getAttribute(&quot;data-cfemail&quot;);if(a){for(e=&quot;&quot;,r=parseInt(a.substr(0,2),16),n=2;a.length-n;n+=2)i=parseInt(a.substr(n,2),16)^r,e+=String.fromCharCode(i);e=document.createTextNode(e),c.parentNode.replaceChild(e,c)}}}catch(u){}}();/* ]]&gt; */&lt;/script&gt;\nFormat settings, CABAC: Yes\nFormat settings, ReFrames: 4 frames\nCodec ID: V_MPEG4/ISO/AVC\nDuration: 1h 21mn\nBit rate: 2 081 Kbps\nWidth: 720 pixels\nHeight: 400 pixels\nDisplay aspect ratio: 16:9\nFrame rate mode: Constant\nFrame rate: 23.976 fps\nColor space: YUV\nChroma subsampling: 4:2:0\nBit depth: 8 bits\nScan type: Progressive\nBits/(Pixel*Frame): 0.301\nStream size: 1.15 GiB (82%)\nWriting library: x264 core 133 r2334 a3ac64b\nDefault: Yes\nForced: No\n\nAudio:\n\nID: 2\nFormat: AC-3\nFormat/Info: Audio Coding 3\nMode extension: CM (complete main)\nFormat settings, Endianness: Big\nCodec ID: A_AC3\nDuration: 1h 21mn\nBit rate mode: Constant\nBit rate: 384 Kbps\nChannel(s): 6 channels\nChannel positions: Front: L C R, Side: L R, LFE\nSampling rate: 48.0 KHz\nBit depth: 16 bits\nCompression mode: Lossy\nStream size: 223 MiB (16%)\nLanguage: English\nDefault: Yes\nForced: No\nEncoder: db420\n\nScreens: &lt;a href=&quot;\nhttp://imgsure.com/?p=543008&quot; rel=&quot;nofollow&quot; target=&quot;_NEW&quot;&gt;\nhttp://imgsure.com/?p=543008&lt;/a&gt; &lt;a href=&quot;\nhttp://imgsure.com/?p=871123&quot; rel=&quot;nofollow&quot; target=&quot;_NEW&quot;&gt;\nhttp://imgsure.com/?p=871123&lt;/a&gt; &lt;a href=&quot;\nhttp://imgsure.com/?p=257883&quot; rel=&quot;nofollow&quot; target=&quot;_NEW&quot;&gt;\nhttp://imgsure.com/?p=257883&lt;/a&gt; &lt;a href=&quot;\nhttp://imgsure.com/?p=488413&quot; rel=&quot;nofollow&quot; target=&quot;_NEW&quot;&gt;\nhttp://imgsure.com/?p=488413&lt;/a&gt;","torrent":{"xt":"urn:btih:7bf28708f348a0961d328732447193589747b271","amp;dn":"Absence.2013.BRRip.x264.AC3-FooKaS+%5BPublicHash%5D","amp;tr":["udp%3A%2F%2Ftracker.openbittorrent.com%3A80","udp%3A%2F%2Fopen.demonii.com%3A1337","udp%3A%2F%2Ftracker.coppersurfer.tk%3A6969","udp%3A%2F%2Fexodus.desync.com%3A6969"],"infoHash":"7bf28708f348a0961d328732447193589747b271","infoHashBuffer":{"type":"Buffer","data":[123,242,135,8,243,72,160,150,29,50,135,50,68,113,147,88,151,71,178,113]},"announce":[],"urlList":[]}}